<?xml version="1.0" encoding="UTF-8"?>
<svg xmlns="http://www.w3.org/2000/svg" version="1.1" width="300" height="300" viewBox="0 0 300 300"><rect x="0" y="0" width="300" height="300" fill="#ffffff"/><g transform="scale(12)"><g transform="translate(0,0)"><path fill-rule="evenodd" d="M10 0L10 1L11 1L11 2L8 2L8 8L9 8L9 6L10 6L10 7L11 7L11 6L12 6L12 10L13 10L13 11L12 11L12 12L11 12L11 9L10 9L10 10L9 10L9 11L7 11L7 10L4 10L4 9L7 9L7 8L2 8L2 9L1 9L1 8L0 8L0 12L1 12L1 13L0 13L0 17L1 17L1 13L2 13L2 14L3 14L3 15L4 15L4 16L6 16L6 17L7 17L7 16L6 16L6 15L9 15L9 16L11 16L11 15L10 15L10 14L11 14L11 13L12 13L12 16L13 16L13 17L14 17L14 18L13 18L13 20L12 20L12 22L11 22L11 24L12 24L12 22L13 22L13 21L14 21L14 24L13 24L13 25L14 25L14 24L15 24L15 25L16 25L16 23L15 23L15 21L16 21L16 22L17 22L17 25L18 25L18 24L22 24L22 25L25 25L25 24L24 24L24 23L25 23L25 21L23 21L23 22L22 22L22 23L21 23L21 21L22 21L22 19L25 19L25 15L23 15L23 14L22 14L22 15L23 15L23 16L24 16L24 18L22 18L22 19L21 19L21 17L22 17L22 16L17 16L17 15L19 15L19 14L20 14L20 15L21 15L21 13L22 13L22 12L18 12L18 11L19 11L19 10L20 10L20 11L21 11L21 9L23 9L23 8L18 8L18 9L16 9L16 8L17 8L17 6L16 6L16 8L15 8L15 9L14 9L14 7L15 7L15 5L17 5L17 4L16 4L16 3L17 3L17 2L16 2L16 3L14 3L14 2L15 2L15 1L16 1L16 0L14 0L14 1L13 1L13 0ZM12 1L12 2L13 2L13 1ZM9 3L9 5L10 5L10 6L11 6L11 4L12 4L12 5L15 5L15 4L13 4L13 3ZM13 6L13 7L14 7L14 6ZM2 9L2 10L1 10L1 12L2 12L2 13L3 13L3 14L5 14L5 15L6 15L6 14L8 14L8 12L7 12L7 11L5 11L5 13L3 13L3 12L4 12L4 11L3 11L3 9ZM13 9L13 10L14 10L14 12L17 12L17 13L16 13L16 14L15 14L15 15L14 15L14 13L13 13L13 16L16 16L16 14L18 14L18 12L17 12L17 10L16 10L16 9L15 9L15 10L14 10L14 9ZM18 9L18 10L19 10L19 9ZM24 9L24 10L25 10L25 9ZM22 10L22 11L23 11L23 10ZM2 11L2 12L3 12L3 11ZM6 12L6 13L7 13L7 12ZM9 12L9 14L10 14L10 13L11 13L11 12ZM23 12L23 13L24 13L24 14L25 14L25 12ZM2 16L2 17L3 17L3 16ZM8 17L8 18L9 18L9 17ZM17 17L17 20L20 20L20 17ZM10 18L10 19L8 19L8 23L9 23L9 24L8 24L8 25L9 25L9 24L10 24L10 21L11 21L11 18ZM18 18L18 19L19 19L19 18ZM14 19L14 20L15 20L15 19ZM9 20L9 21L10 21L10 20ZM19 21L19 23L20 23L20 21ZM23 22L23 23L22 23L22 24L23 24L23 23L24 23L24 22ZM0 0L7 0L7 7L0 7ZM1 1L1 6L6 6L6 1ZM2 2L5 2L5 5L2 5ZM18 0L25 0L25 7L18 7ZM19 1L19 6L24 6L24 1ZM20 2L23 2L23 5L20 5ZM0 18L7 18L7 25L0 25ZM1 19L1 24L6 24L6 19ZM2 20L5 20L5 23L2 23Z" fill="#000000"/></g></g></svg>
